<svg xmlns="http://www.w3.org/2000/svg" viewBox="0 0 26 26" id="Play">
  <path d="M13.002 0C5.828 0 0 5.824 0 12.998 0 20.172 5.828 26 13.002 26S26 20.172 26 12.998 20.176 0 13.002 0zm0 1A11.99 11.99 0 0 1 25 12.998c0 6.633-5.365 12-11.998 12-6.633 0-12.002-5.367-12.002-12S6.369 1 13.002 1zm-3.52 6A.5.5 0 0 0 9 7.5v10.998a.5.5 0 0 0 .81.395l7-5.5a.5.5 0 0 0 0-.786l-7-5.5A.5.5 0 0 0 9.483 7z" color="#000" font-family="sans-serif" font-weight="400" overflow="visible" style="line-height:normal;text-indent:0;text-align:start;text-decoration-line:none;text-decoration-style:solid;text-decoration-color:#000;text-transform:none;block-progression:tb;isolation:auto;mix-blend-mode:normal;marker:none" fill="#d9d9d9" class="color000000 svgShape"></path>
</svg>